<svg width="529" height="76" viewBox="0 0 529 76" fill="none" xmlns="http://www.w3.org/2000/svg">
<path d="M0.0681818 74V4.18182H47.1136V16.3523H14.8295V32.9886H44.6932V45.1591H14.8295V61.8295H47.25V74H0.0681818ZM77.8722 74.8523C73.8949 74.8523 70.2926 73.8295 67.0653 71.7841C63.8608 69.7159 61.3153 66.6818 59.429 62.6818C57.5653 58.6591 56.6335 53.7273 56.6335 47.8864C56.6335 41.8864 57.5994 36.8977 59.5312 32.9205C61.4631 28.9205 64.0313 25.9318 67.2358 23.9545C70.4631 21.9545 73.9972 20.9545 77.8381 20.9545C80.7699 20.9545 83.2131 21.4545 85.1676 22.4545C87.1449 23.4318 88.7358 24.6591 89.9403 26.1364C91.1676 27.5909 92.0994 29.0227 92.7358 30.4318H93.179V4.18182H107.668V74H93.3494V65.6136H92.7358C92.054 67.0682 91.0881 68.5114 89.8381 69.9432C88.6108 71.3523 87.0085 72.5227 85.0312 73.4545C83.0767 74.3864 80.6903 74.8523 77.8722 74.8523ZM82.4744 63.2955C84.8153 63.2955 86.7926 62.6591 88.4062 61.3864C90.0426 60.0909 91.2926 58.2841 92.1562 55.9659C93.0426 53.6477 93.4858 50.9318 93.4858 47.8182C93.4858 44.7045 93.054 42 92.1903 39.7045C91.3267 37.4091 90.0767 35.6364 88.4403 34.3864C86.804 33.1364 84.8153 32.5114 82.4744 32.5114C80.0881 32.5114 78.0767 33.1591 76.4403 34.4545C74.804 35.75 73.5653 37.5455 72.7244 39.8409C71.8835 42.1364 71.4631 44.7955 71.4631 47.8182C71.4631 50.8636 71.8835 53.5568 72.7244 55.8977C73.5881 58.2159 74.8267 60.0341 76.4403 61.3523C78.0767 62.6477 80.0881 63.2955 82.4744 63.2955ZM153.188 51.7045V21.6364H167.71V74H153.767V64.4886H153.222C152.04 67.5568 150.074 70.0227 147.324 71.8864C144.597 73.75 141.267 74.6818 137.335 74.6818C133.835 74.6818 130.756 73.8864 128.097 72.2955C125.438 70.7045 123.358 68.4432 121.858 65.5114C120.381 62.5795 119.631 59.0682 119.608 54.9773V21.6364H134.131V52.3864C134.153 55.4773 134.983 57.9205 136.619 59.7159C138.256 61.5114 140.449 62.4091 143.199 62.4091C144.949 62.4091 146.585 62.0114 148.108 61.2159C149.631 60.3977 150.858 59.1932 151.79 57.6023C152.744 56.0114 153.21 54.0455 153.188 51.7045ZM179.599 4.18182H197.804L217.031 51.0909H217.849L237.077 4.18182H255.281V74H240.963V28.5568H240.384L222.315 73.6591H212.565L194.497 28.3864H193.918V74H179.599V4.18182ZM291.034 75.0227C285.648 75.0227 281.011 73.9318 277.125 71.75C273.261 69.5455 270.284 66.4318 268.193 62.4091C266.102 58.3636 265.057 53.5795 265.057 48.0568C265.057 42.6705 266.102 37.9432 268.193 33.875C270.284 29.8068 273.227 26.6364 277.023 24.3636C280.841 22.0909 285.318 20.9545 290.455 20.9545C293.909 20.9545 297.125 21.5114 300.102 22.625C303.102 23.7159 305.716 25.3636 307.943 27.5682C310.193 29.7727 311.943 32.5455 313.193 35.8864C314.443 39.2045 315.068 43.0909 315.068 47.5455V51.5341H270.852V42.5341H301.398C301.398 40.4432 300.943 38.5909 300.034 36.9773C299.125 35.3636 297.864 34.1023 296.25 33.1932C294.659 32.2614 292.807 31.7955 290.693 31.7955C288.489 31.7955 286.534 32.3068 284.83 33.3295C283.148 34.3295 281.83 35.6818 280.875 37.3864C279.92 39.0682 279.432 40.9432 279.409 43.0114V51.5682C279.409 54.1591 279.886 56.3977 280.841 58.2841C281.818 60.1705 283.193 61.625 284.966 62.6477C286.739 63.6705 288.841 64.1818 291.273 64.1818C292.886 64.1818 294.364 63.9545 295.705 63.5C297.045 63.0455 298.193 62.3636 299.148 61.4545C300.102 60.5455 300.83 59.4318 301.33 58.1136L314.761 59C314.08 62.2273 312.682 65.0455 310.568 67.4545C308.477 69.8409 305.773 71.7045 302.455 73.0455C299.159 74.3636 295.352 75.0227 291.034 75.0227ZM352.398 21.6364V32.5455H320.864V21.6364H352.398ZM328.023 9.09091H342.545V57.9091C342.545 59.25 342.75 60.2955 343.159 61.0455C343.568 61.7727 344.136 62.2841 344.864 62.5795C345.614 62.875 346.477 63.0227 347.455 63.0227C348.136 63.0227 348.818 62.9659 349.5 62.8523C350.182 62.7159 350.705 62.6136 351.068 62.5455L353.352 73.3523C352.625 73.5795 351.602 73.8409 350.284 74.1364C348.966 74.4545 347.364 74.6477 345.477 74.7159C341.977 74.8523 338.909 74.3864 336.273 73.3182C333.659 72.25 331.625 70.5909 330.17 68.3409C328.716 66.0909 328 63.25 328.023 59.8182V9.09091ZM361.858 74V21.6364H375.938V30.7727H376.483C377.438 27.5227 379.04 25.0682 381.29 23.4091C383.54 21.7273 386.131 20.8864 389.062 20.8864C389.79 20.8864 390.574 20.9318 391.415 21.0227C392.256 21.1136 392.994 21.2386 393.631 21.3977V34.2841C392.949 34.0795 392.006 33.8977 390.801 33.7386C389.597 33.5795 388.494 33.5 387.494 33.5C385.358 33.5 383.449 33.9659 381.767 34.8977C380.108 35.8068 378.79 37.0795 377.812 38.7159C376.858 40.3523 376.381 42.2386 376.381 44.375V74H361.858ZM401.139 74V21.6364H415.662V74H401.139ZM408.435 14.8864C406.276 14.8864 404.423 14.1705 402.878 12.7386C401.355 11.2841 400.594 9.54545 400.594 7.52272C400.594 5.52272 401.355 3.80682 402.878 2.375C404.423 0.920452 406.276 0.193178 408.435 0.193178C410.594 0.193178 412.435 0.920452 413.957 2.375C415.503 3.80682 416.276 5.52272 416.276 7.52272C416.276 9.54545 415.503 11.2841 413.957 12.7386C412.435 14.1705 410.594 14.8864 408.435 14.8864ZM450.955 75.0227C445.591 75.0227 440.977 73.8864 437.114 71.6136C433.273 69.3182 430.318 66.1364 428.25 62.0682C426.205 58 425.182 53.3182 425.182 48.0227C425.182 42.6591 426.216 37.9545 428.284 33.9091C430.375 29.8409 433.341 26.6705 437.182 24.3977C441.023 22.1023 445.591 20.9545 450.886 20.9545C455.455 20.9545 459.455 21.7841 462.886 23.4432C466.318 25.1023 469.034 27.4318 471.034 30.4318C473.034 33.4318 474.136 36.9545 474.341 41H460.636C460.25 38.3864 459.227 36.2841 457.568 34.6932C455.932 33.0795 453.784 32.2727 451.125 32.2727C448.875 32.2727 446.909 32.8864 445.227 34.1136C443.568 35.3182 442.273 37.0795 441.341 39.3977C440.409 41.7159 439.943 44.5227 439.943 47.8182C439.943 51.1591 440.398 54 441.307 56.3409C442.239 58.6818 443.545 60.4659 445.227 61.6932C446.909 62.9205 448.875 63.5341 451.125 63.5341C452.784 63.5341 454.273 63.1932 455.591 62.5114C456.932 61.8295 458.034 60.8409 458.898 59.5455C459.784 58.2273 460.364 56.6477 460.636 54.8068H474.341C474.114 58.8068 473.023 62.3295 471.068 65.375C469.136 68.3977 466.466 70.7614 463.057 72.4659C459.648 74.1705 455.614 75.0227 450.955 75.0227ZM527.207 36.5682L513.912 37.3864C513.685 36.25 513.196 35.2273 512.446 34.3182C511.696 33.3864 510.707 32.6477 509.48 32.1023C508.276 31.5341 506.832 31.25 505.151 31.25C502.901 31.25 501.003 31.7273 499.457 32.6818C497.912 33.6136 497.139 34.8636 497.139 36.4318C497.139 37.6818 497.639 38.7386 498.639 39.6023C499.639 40.4659 501.355 41.1591 503.787 41.6818L513.264 43.5909C518.355 44.6364 522.151 46.3182 524.651 48.6364C527.151 50.9545 528.401 54 528.401 57.7727C528.401 61.2045 527.389 64.2159 525.366 66.8068C523.366 69.3977 520.616 71.4205 517.116 72.875C513.639 74.3068 509.628 75.0227 505.082 75.0227C498.151 75.0227 492.628 73.5795 488.514 70.6932C484.423 67.7841 482.026 63.8295 481.321 58.8295L495.605 58.0795C496.037 60.1932 497.082 61.8068 498.741 62.9205C500.401 64.0114 502.526 64.5568 505.116 64.5568C507.662 64.5568 509.707 64.0682 511.253 63.0909C512.821 62.0909 513.616 60.8068 513.639 59.2386C513.616 57.9205 513.06 56.8409 511.969 56C510.878 55.1364 509.196 54.4773 506.923 54.0227L497.855 52.2159C492.741 51.1932 488.935 49.4205 486.435 46.8977C483.957 44.375 482.719 41.1591 482.719 37.25C482.719 33.8864 483.628 30.9886 485.446 28.5568C487.287 26.125 489.866 24.25 493.185 22.9318C496.526 21.6136 500.435 20.9545 504.912 20.9545C511.526 20.9545 516.73 22.3523 520.526 25.1477C524.344 27.9432 526.571 31.75 527.207 36.5682Z" fill="black"/>
</svg>
