<svg width="94" height="94" viewBox="0 0 94 94" fill="none" xmlns="http://www.w3.org/2000/svg">
<path d="M20 93C21.3044 93 22.3733 92.0408 22.5543 90.6833C24.3478 78.5928 25.9963 76.9095 37.6269 75.5883C38.9673 75.4254 40 74.3033 40 73.0001C40 71.6787 38.9855 70.5928 37.6449 70.3937C26.0869 68.7828 24.6559 67.3711 22.5543 55.2987C22.3188 53.9594 21.2862 53 20 53C18.6776 53 17.6267 53.9594 17.4094 55.3167C15.6522 67.3892 14.0037 69.0725 2.39128 70.3937C1.01446 70.5748 0 71.6607 0 73.0001C0 74.3033 0.978243 75.3892 2.35506 75.5883C13.9311 77.2354 15.3441 78.6289 17.4094 90.7014C17.6812 92.0588 18.7318 93 20 93Z" fill="black"/>
<g clip-path="url(#clip0_2604_7)">
<mask id="mask0_2604_7" style="mask-type:luminance" maskUnits="userSpaceOnUse" x="0" y="0" width="94" height="94">
<path d="M94 0H0V94H94V0Z" fill="white"/>
</mask>
<g mask="url(#mask0_2604_7)">
<path d="M56.6765 5.52938H84.3235C85.0568 5.52938 85.76 5.82066 86.2785 6.33915C86.797 6.85763 87.0882 7.56084 87.0882 8.29409V35.9411C87.0882 36.6744 86.797 37.3776 86.2785 37.8961C85.76 38.4146 85.0568 38.7059 84.3235 38.7059H56.6765C55.9432 38.7059 55.24 38.4146 54.7215 37.8961C54.203 37.3776 53.9118 36.6744 53.9118 35.9411V8.29409C53.9118 7.56084 54.203 6.85763 54.7215 6.33915C55.24 5.82066 55.9432 5.52938 56.6765 5.52938ZM74.2711 55.283L93.624 88.4595C94.6981 90.3036 93.3696 92.6176 91.2353 92.6176H52.5294C50.3951 92.6176 49.0666 90.3036 50.1407 88.4595L69.4936 55.283C70.5608 53.4542 73.2039 53.4542 74.2711 55.283ZM20.7353 1.38232C32.1867 1.38232 41.4706 10.6662 41.4706 22.1176C41.4706 33.569 32.1867 42.8529 20.7353 42.8529C9.28388 42.8529 0 33.569 0 22.1176C0 10.6662 9.28388 1.38232 20.7353 1.38232Z" fill="black"/>
</g>
</g>
<defs>
<clipPath id="clip0_2604_7">
<rect width="94" height="94" fill="white"/>
</clipPath>
</defs>
</svg>
