<svg width="667" height="116" viewBox="0 0 667 116" fill="none" xmlns="http://www.w3.org/2000/svg">
<path d="M135.068 93V23.1818H182.114V35.3523H149.83V51.9886H179.693V64.1591H149.83V80.8295H182.25V93H135.068ZM212.872 93.8523C208.895 93.8523 205.293 92.8295 202.065 90.7841C198.861 88.7159 196.315 85.6818 194.429 81.6818C192.565 77.6591 191.634 72.7273 191.634 66.8864C191.634 60.8864 192.599 55.8977 194.531 51.9205C196.463 47.9205 199.031 44.9318 202.236 42.9545C205.463 40.9545 208.997 39.9545 212.838 39.9545C215.77 39.9545 218.213 40.4545 220.168 41.4545C222.145 42.4318 223.736 43.6591 224.94 45.1364C226.168 46.5909 227.099 48.0227 227.736 49.4318H228.179V23.1818H242.668V93H228.349V84.6136H227.736C227.054 86.0682 226.088 87.5114 224.838 88.9432C223.611 90.3523 222.009 91.5227 220.031 92.4545C218.077 93.3864 215.69 93.8523 212.872 93.8523ZM217.474 82.2955C219.815 82.2955 221.793 81.6591 223.406 80.3864C225.043 79.0909 226.293 77.2841 227.156 74.9659C228.043 72.6477 228.486 69.9318 228.486 66.8182C228.486 63.7045 228.054 61 227.19 58.7045C226.327 56.4091 225.077 54.6364 223.44 53.3864C221.804 52.1364 219.815 51.5114 217.474 51.5114C215.088 51.5114 213.077 52.1591 211.44 53.4545C209.804 54.75 208.565 56.5455 207.724 58.8409C206.884 61.1364 206.463 63.7955 206.463 66.8182C206.463 69.8636 206.884 72.5568 207.724 74.8977C208.588 77.2159 209.827 79.0341 211.44 80.3523C213.077 81.6477 215.088 82.2955 217.474 82.2955ZM288.188 70.7045V40.6364H302.71V93H288.767V83.4886H288.222C287.04 86.5568 285.074 89.0227 282.324 90.8864C279.597 92.75 276.267 93.6818 272.335 93.6818C268.835 93.6818 265.756 92.8864 263.097 91.2955C260.438 89.7045 258.358 87.4432 256.858 84.5114C255.381 81.5795 254.631 78.0682 254.608 73.9773V40.6364H269.131V71.3864C269.153 74.4773 269.983 76.9205 271.619 78.7159C273.256 80.5114 275.449 81.4091 278.199 81.4091C279.949 81.4091 281.585 81.0114 283.108 80.2159C284.631 79.3977 285.858 78.1932 286.79 76.6023C287.744 75.0114 288.21 73.0455 288.188 70.7045ZM314.599 23.1818H332.804L352.031 70.0909H352.849L372.077 23.1818H390.281V93H375.963V47.5568H375.384L357.315 92.6591H347.565L329.497 47.3864H328.918V93H314.599V23.1818ZM426.034 94.0227C420.648 94.0227 416.011 92.9318 412.125 90.75C408.261 88.5455 405.284 85.4318 403.193 81.4091C401.102 77.3636 400.057 72.5795 400.057 67.0568C400.057 61.6705 401.102 56.9432 403.193 52.875C405.284 48.8068 408.227 45.6364 412.023 43.3636C415.841 41.0909 420.318 39.9545 425.455 39.9545C428.909 39.9545 432.125 40.5114 435.102 41.625C438.102 42.7159 440.716 44.3636 442.943 46.5682C445.193 48.7727 446.943 51.5455 448.193 54.8864C449.443 58.2045 450.068 62.0909 450.068 66.5455V70.5341H405.852V61.5341H436.398C436.398 59.4432 435.943 57.5909 435.034 55.9773C434.125 54.3636 432.864 53.1023 431.25 52.1932C429.659 51.2614 427.807 50.7955 425.693 50.7955C423.489 50.7955 421.534 51.3068 419.83 52.3295C418.148 53.3295 416.83 54.6818 415.875 56.3864C414.92 58.0682 414.432 59.9432 414.409 62.0114V70.5682C414.409 73.1591 414.886 75.3977 415.841 77.2841C416.818 79.1705 418.193 80.625 419.966 81.6477C421.739 82.6705 423.841 83.1818 426.273 83.1818C427.886 83.1818 429.364 82.9545 430.705 82.5C432.045 82.0455 433.193 81.3636 434.148 80.4545C435.102 79.5455 435.83 78.4318 436.33 77.1136L449.761 78C449.08 81.2273 447.682 84.0455 445.568 86.4545C443.477 88.8409 440.773 90.7045 437.455 92.0455C434.159 93.3636 430.352 94.0227 426.034 94.0227ZM487.398 40.6364V51.5455H455.864V40.6364H487.398ZM463.023 28.0909H477.545V76.9091C477.545 78.25 477.75 79.2955 478.159 80.0455C478.568 80.7727 479.136 81.2841 479.864 81.5795C480.614 81.875 481.477 82.0227 482.455 82.0227C483.136 82.0227 483.818 81.9659 484.5 81.8523C485.182 81.7159 485.705 81.6136 486.068 81.5455L488.352 92.3523C487.625 92.5795 486.602 92.8409 485.284 93.1364C483.966 93.4545 482.364 93.6477 480.477 93.7159C476.977 93.8523 473.909 93.3864 471.273 92.3182C468.659 91.25 466.625 89.5909 465.17 87.3409C463.716 85.0909 463 82.25 463.023 78.8182V28.0909ZM496.858 93V40.6364H510.938V49.7727H511.483C512.438 46.5227 514.04 44.0682 516.29 42.4091C518.54 40.7273 521.131 39.8864 524.062 39.8864C524.79 39.8864 525.574 39.9318 526.415 40.0227C527.256 40.1136 527.994 40.2386 528.631 40.3977V53.2841C527.949 53.0795 527.006 52.8977 525.801 52.7386C524.597 52.5795 523.494 52.5 522.494 52.5C520.358 52.5 518.449 52.9659 516.767 53.8977C515.108 54.8068 513.79 56.0795 512.812 57.7159C511.858 59.3523 511.381 61.2386 511.381 63.375V93H496.858ZM536.139 93V40.6364H550.662V93H536.139ZM543.435 33.8864C541.276 33.8864 539.423 33.1705 537.878 31.7386C536.355 30.2841 535.594 28.5455 535.594 26.5227C535.594 24.5227 536.355 22.8068 537.878 21.375C539.423 19.9205 541.276 19.1932 543.435 19.1932C545.594 19.1932 547.435 19.9205 548.957 21.375C550.503 22.8068 551.276 24.5227 551.276 26.5227C551.276 28.5455 550.503 30.2841 548.957 31.7386C547.435 33.1705 545.594 33.8864 543.435 33.8864ZM585.955 94.0227C580.591 94.0227 575.977 92.8864 572.114 90.6136C568.273 88.3182 565.318 85.1364 563.25 81.0682C561.205 77 560.182 72.3182 560.182 67.0227C560.182 61.6591 561.216 56.9545 563.284 52.9091C565.375 48.8409 568.341 45.6705 572.182 43.3977C576.023 41.1023 580.591 39.9545 585.886 39.9545C590.455 39.9545 594.455 40.7841 597.886 42.4432C601.318 44.1023 604.034 46.4318 606.034 49.4318C608.034 52.4318 609.136 55.9545 609.341 60H595.636C595.25 57.3864 594.227 55.2841 592.568 53.6932C590.932 52.0795 588.784 51.2727 586.125 51.2727C583.875 51.2727 581.909 51.8864 580.227 53.1136C578.568 54.3182 577.273 56.0795 576.341 58.3977C575.409 60.7159 574.943 63.5227 574.943 66.8182C574.943 70.1591 575.398 73 576.307 75.3409C577.239 77.6818 578.545 79.4659 580.227 80.6932C581.909 81.9205 583.875 82.5341 586.125 82.5341C587.784 82.5341 589.273 82.1932 590.591 81.5114C591.932 80.8295 593.034 79.8409 593.898 78.5455C594.784 77.2273 595.364 75.6477 595.636 73.8068H609.341C609.114 77.8068 608.023 81.3295 606.068 84.375C604.136 87.3977 601.466 89.7614 598.057 91.4659C594.648 93.1705 590.614 94.0227 585.955 94.0227ZM662.207 55.5682L648.912 56.3864C648.685 55.25 648.196 54.2273 647.446 53.3182C646.696 52.3864 645.707 51.6477 644.48 51.1023C643.276 50.5341 641.832 50.25 640.151 50.25C637.901 50.25 636.003 50.7273 634.457 51.6818C632.912 52.6136 632.139 53.8636 632.139 55.4318C632.139 56.6818 632.639 57.7386 633.639 58.6023C634.639 59.4659 636.355 60.1591 638.787 60.6818L648.264 62.5909C653.355 63.6364 657.151 65.3182 659.651 67.6364C662.151 69.9545 663.401 73 663.401 76.7727C663.401 80.2045 662.389 83.2159 660.366 85.8068C658.366 88.3977 655.616 90.4205 652.116 91.875C648.639 93.3068 644.628 94.0227 640.082 94.0227C633.151 94.0227 627.628 92.5795 623.514 89.6932C619.423 86.7841 617.026 82.8295 616.321 77.8295L630.605 77.0795C631.037 79.1932 632.082 80.8068 633.741 81.9205C635.401 83.0114 637.526 83.5568 640.116 83.5568C642.662 83.5568 644.707 83.0682 646.253 82.0909C647.821 81.0909 648.616 79.8068 648.639 78.2386C648.616 76.9205 648.06 75.8409 646.969 75C645.878 74.1364 644.196 73.4773 641.923 73.0227L632.855 71.2159C627.741 70.1932 623.935 68.4205 621.435 65.8977C618.957 63.375 617.719 60.1591 617.719 56.25C617.719 52.8864 618.628 49.9886 620.446 47.5568C622.287 45.125 624.866 43.25 628.185 41.9318C631.526 40.6136 635.435 39.9545 639.912 39.9545C646.526 39.9545 651.73 41.3523 655.526 44.1477C659.344 46.9432 661.571 50.75 662.207 55.5682Z" fill="black"/>
<path d="M20 104C21.3044 104 22.3733 103.041 22.5543 101.683C24.3478 89.5928 25.9963 87.9095 37.6269 86.5883C38.9673 86.4254 40 85.3033 40 84.0001C40 82.6787 38.9855 81.5928 37.6449 81.3937C26.0869 79.7828 24.6559 78.3711 22.5543 66.2987C22.3188 64.9594 21.2862 64 20 64C18.6776 64 17.6267 64.9594 17.4094 66.3167C15.6522 78.3892 14.0037 80.0725 2.39128 81.3937C1.01446 81.5748 0 82.6607 0 84.0001C0 85.3033 0.978243 86.3892 2.35506 86.5883C13.9311 88.2354 15.3441 89.6289 17.4094 101.701C17.6812 103.059 18.7318 104 20 104Z" fill="black"/>
<g clip-path="url(#clip0_2602_24)">
<mask id="mask0_2602_24" style="mask-type:luminance" maskUnits="userSpaceOnUse" x="0" y="11" width="94" height="94">
<path d="M94 11H0V105H94V11Z" fill="white"/>
</mask>
<g mask="url(#mask0_2602_24)">
<path d="M56.6765 16.5294H84.3235C85.0568 16.5294 85.76 16.8207 86.2785 17.3392C86.797 17.8576 87.0882 18.5608 87.0882 19.2941V46.9411C87.0882 47.6744 86.797 48.3776 86.2785 48.8961C85.76 49.4146 85.0568 49.7059 84.3235 49.7059H56.6765C55.9432 49.7059 55.24 49.4146 54.7215 48.8961C54.203 48.3776 53.9118 47.6744 53.9118 46.9411V19.2941C53.9118 18.5608 54.203 17.8576 54.7215 17.3392C55.24 16.8207 55.9432 16.5294 56.6765 16.5294ZM74.2711 66.283L93.624 99.4595C94.6981 101.304 93.3696 103.618 91.2353 103.618H52.5294C50.3951 103.618 49.0666 101.304 50.1407 99.4595L69.4936 66.283C70.5608 64.4542 73.2039 64.4542 74.2711 66.283ZM20.7353 12.3823C32.1867 12.3823 41.4706 21.6662 41.4706 33.1176C41.4706 44.569 32.1867 53.8529 20.7353 53.8529C9.28388 53.8529 0 44.569 0 33.1176C0 21.6662 9.28388 12.3823 20.7353 12.3823Z" fill="black"/>
</g>
</g>
<defs>
<clipPath id="clip0_2602_24">
<rect width="94" height="94" fill="white" transform="translate(0 11)"/>
</clipPath>
</defs>
</svg>
